<svg xmlns="http://www.w3.org/2000/svg" width="64" height="64" viewBox="0 0 64 64" fill="none">
  <rect width="64" height="64" rx="12" fill="#101522"/>
  <rect x="9" y="9" width="46" height="46" rx="10" fill="#172132" stroke="#FF0033" stroke-width="2"/>
  <path d="M31.5 22c-6.5 0-10.5 2.4-12.2 4.1C17.6 27.8 17 29.7 17 32c0 2.3.6 4.2 2.3 5.9 1.7 1.7 5.7 4.1 12.2 4.1 6.5 0 10.5-2.4 12.2-4.1C45.4 36.2 46 34.3 46 32c0-2.3-.6-4.2-2.3-5.9-1.7-1.7-5.7-4.1-12.2-4.1Z" fill="#FF0033" opacity="0.18"/>
  <path d="M23 20h8.7c7.7 0 12.3 4.6 12.3 12 0 7.3-4.6 12-12.3 12H23V20Zm8.3 18.4c4.9 0 7.7-2.5 7.7-6.4 0-4-2.8-6.4-7.7-6.4h-3.1v12.8h3.1Z" fill="#F5F0E8"/>
  <path d="M45 44h-5.6l-3.5-5.5 3.9-2.5L45 44Z" fill="#F5F0E8"/>
</svg>
